<svg width="173" height="24" viewBox="0 0 173 24" fill="none" xmlns="http://www.w3.org/2000/svg">
<path d="M8.056 4.696C5.73067 4.696 4.568 5.464 4.568 7C4.568 7.68267 4.856 8.20533 5.432 8.568C5.73067 8.73867 6.21067 8.96267 6.872 9.24C7.53333 9.496 8.408 9.79467 9.496 10.136C10.5627 10.4773 11.4587 10.8293 12.184 11.192C12.9093 11.5547 13.496 11.9813 13.944 12.472C14.392 12.9413 14.712 13.496 14.904 14.136C15.1173 14.776 15.224 15.544 15.224 16.44C15.224 17.592 15.0427 18.6053 14.68 19.48C14.3173 20.3333 13.8053 21.048 13.144 21.624C12.4827 22.2 11.6933 22.6373 10.776 22.936C9.85867 23.2347 8.83467 23.384 7.704 23.384C6.04 23.384 4.00267 23.128 1.592 22.616L0.44 22.392L0.888 18.968C3.74667 19.352 5.93333 19.544 7.448 19.544C9.70933 19.544 10.84 18.6053 10.84 16.728C10.84 16.0453 10.584 15.512 10.072 15.128C9.51733 14.744 8.472 14.328 6.936 13.88C5.69867 13.5173 4.64267 13.144 3.768 12.76C2.91467 12.3547 2.22133 11.896 1.688 11.384C1.15467 10.8507 0.770667 10.2533 0.536 9.592C0.301333 8.93067 0.184 8.17333 0.184 7.32C0.184 5.12267 0.834667 3.50133 2.136 2.456C3.45867 1.38933 5.28267 0.855999 7.608 0.855999C8.39733 0.855999 9.29333 0.909332 10.296 1.016C11.2987 1.12267 12.408 1.28267 13.624 1.496L14.776 1.72L14.424 5.208C12.9093 5.03733 11.6187 4.90933 10.552 4.824C9.50667 4.73867 8.67467 4.696 8.056 4.696ZM23.1903 23V1.24H18.7743V23H23.1903ZM34.6185 4.696C32.2932 4.696 31.1305 5.464 31.1305 7C31.1305 7.68267 31.4185 8.20533 31.9945 8.568C32.2932 8.73867 32.7732 8.96267 33.4345 9.24C34.0958 9.496 34.9705 9.79467 36.0585 10.136C37.1252 10.4773 38.0212 10.8293 38.7465 11.192C39.4718 11.5547 40.0585 11.9813 40.5065 12.472C40.9545 12.9413 41.2745 13.496 41.4665 14.136C41.6798 14.776 41.7865 15.544 41.7865 16.44C41.7865 17.592 41.6052 18.6053 41.2425 19.48C40.8798 20.3333 40.3678 21.048 39.7065 21.624C39.0452 22.2 38.2558 22.6373 37.3385 22.936C36.4212 23.2347 35.3972 23.384 34.2665 23.384C32.6025 23.384 30.5652 23.128 28.1545 22.616L27.0025 22.392L27.4505 18.968C30.3092 19.352 32.4958 19.544 34.0105 19.544C36.2718 19.544 37.4025 18.6053 37.4025 16.728C37.4025 16.0453 37.1465 15.512 36.6345 15.128C36.0798 14.744 35.0345 14.328 33.4985 13.88C32.2612 13.5173 31.2052 13.144 30.3305 12.76C29.4772 12.3547 28.7838 11.896 28.2505 11.384C27.7172 10.8507 27.3332 10.2533 27.0985 9.592C26.8638 8.93067 26.7465 8.17333 26.7465 7.32C26.7465 5.12267 27.3972 3.50133 28.6985 2.456C30.0212 1.38933 31.8452 0.855999 34.1705 0.855999C34.9598 0.855999 35.8558 0.909332 36.8585 1.016C37.8612 1.12267 38.9705 1.28267 40.1865 1.496L41.3385 1.72L40.9865 5.208C39.4718 5.03733 38.1812 4.90933 37.1145 4.824C36.0692 4.73867 35.2372 4.696 34.6185 4.696ZM49.7528 14.648L52.6968 14.328L56.3448 23H61.4328L56.5688 12.152L61.3048 1.24H56.2808L52.6968 10.488L49.7528 10.808V1.24H45.3368V23H49.7528V14.648ZM66.8975 23L67.7615 19.064H75.3775L76.2415 23H80.6575L75.7615 1.24H67.3775L62.4815 23H66.8975ZM72.3375 4.888L74.5455 15.224H68.5935L70.8015 4.888H72.3375ZM87.9715 23V6.168H88.4515L92.7075 22.04H97.1235L101.38 6.168H101.86V23H106.276V1.24H98.7555L94.9155 17.112L91.0755 1.24H83.5555V23H87.9715ZM123.408 19.096H115.44V1.24H111.024V23H123.408V19.096ZM130.534 23V1.24H126.118V23H130.534ZM139.69 23V5.08H140.01L145.45 23H152.714V1.24H148.298V19.16H147.978L142.73 1.24H135.274V23H139.69ZM168.502 15.192H166.518V11.352H172.854V22.648C171.318 22.8827 169.931 23.064 168.694 23.192C167.478 23.32 166.39 23.384 165.43 23.384C163.744 23.384 162.326 23.1707 161.174 22.744C160.043 22.296 159.126 21.6133 158.422 20.696C157.739 19.7573 157.248 18.5733 156.95 17.144C156.672 15.7147 156.534 14.008 156.534 12.024C156.534 10.04 156.683 8.344 156.982 6.936C157.302 5.528 157.803 4.376 158.486 3.48C159.19 2.584 160.096 1.92267 161.206 1.496C162.315 1.06933 163.67 0.855999 165.27 0.855999C167.254 0.855999 169.398 1.08 171.702 1.528L172.854 1.752L172.726 5.176C171.446 5.02667 170.283 4.92 169.238 4.856C168.192 4.792 167.264 4.76 166.454 4.76C165.643 4.76 164.96 4.80267 164.406 4.888C163.851 4.97333 163.382 5.12267 162.998 5.336C162.635 5.54933 162.336 5.82667 162.102 6.168C161.888 6.50933 161.707 6.936 161.558 7.448C161.238 8.49333 161.078 10.264 161.078 12.76C161.078 14.0187 161.142 15.0853 161.27 15.96C161.419 16.8133 161.664 17.5067 162.006 18.04C162.368 18.5733 162.859 18.9573 163.478 19.192C164.096 19.4267 164.886 19.544 165.846 19.544L168.502 19.416V15.192Z" fill="#36A5AE"/>
</svg>
